<svg width="648.192529296875px" height="111.8px" xmlns="http://www.w3.org/2000/svg" viewBox="-74.09626464843751 19.1 648.192529296875 111.8" style="background: rgba(0, 0, 0, 0);" preserveAspectRatio="xMidYMid"><defs><filter id="editing-offset"><feFlood flood-color="#f00" flood-opacity="0.5" result="c1"></feFlood><feFlood flood-color="#0f0" flood-opacity="0.5" result="c2"></feFlood><feFlood flood-color="#00f" flood-opacity="0.5" result="c3"></feFlood><feComposite operator="in" in="c1" in2="SourceAlpha" result="text-c1"></feComposite><feComposite operator="in" in="c2" in2="SourceAlpha" result="text-c2"></feComposite><feComposite operator="in" in="c3" in2="SourceAlpha" result="text-c3"></feComposite><feOffset in="text-c1" dx="-10" dy="0" result="text1"></feOffset><feOffset in="text-c2" dx="10" dy="0" result="text2"></feOffset><feOffset in="text-c3" dx="0" dy="0" result="text3"></feOffset><feMerge><feMergeNode in="text1"></feMergeNode><feMergeNode in="text2"></feMergeNode><feMergeNode in="text3"></feMergeNode></feMerge></filter></defs><g filter="url(#editing-offset)"><g transform="translate(19.970001220703125, 101.70999908447266)"><path d="M5.92 0L-0.75 0L9.74-38.28L21.87-38.28L24.53-16.41L35.32-38.28L45.47-38.28L46.52-9.63L46.52-9.63Q46.75-3.94 49.53-2.20L49.53-2.20L49.53-2.20Q48.89-1.04 47.04 0.06L47.04 0.06L47.04 0.06Q45.18 1.16 42.72 1.16L42.72 1.16L42.72 1.16Q40.25 1.16 38.80 0.46L38.80 0.46L38.80 0.46Q37.35-0.23 36.54-1.39L36.54-1.39L36.54-1.39Q35.09-3.48 35.09-7.48L35.09-7.48L35.09-25.40L23.66 0L16.47 0L12.41-26.04L5.92 0ZM54.55-1.74L54.55-1.74L54.55-1.74Q53.19-3.25 52.58-5.63L52.58-5.63L52.58-5.63Q51.97-8.00 51.97-11.89L51.97-11.89L51.97-11.89Q51.97-15.78 53.30-19.31L53.30-19.31L53.30-19.31Q54.64-22.85 57.07-25.40L57.07-25.40L57.07-25.40Q62.06-30.74 70.30-30.74L70.30-30.74L70.30-30.74Q73.25-30.74 75.40-29.75L75.40-29.75L85.32-30.74L81.03-8.12L81.03-8.12Q80.85-7.42 80.85-6.15L80.85-6.15L80.85-6.15Q80.85-4.87 81.64-4.06L81.64-4.06L81.64-4.06Q82.42-3.25 83.58-3.13L83.58-3.13L83.58-3.13Q83.00-1.16 80.88 0L80.88 0L80.88 0Q78.76 1.16 76.39 1.16L76.39 1.16L76.39 1.16Q74.01 1.16 72.41 0.26L72.41 0.26L72.41 0.26Q70.82-0.64 70.35-2.15L70.35-2.15L70.35-2.15Q69.43-0.70 67.45 0.23L67.45 0.23L67.45 0.23Q65.48 1.16 62.84 1.16L62.84 1.16L62.84 1.16Q60.20 1.16 58.06 0.46L58.06 0.46L58.06 0.46Q55.91-0.23 54.55-1.74ZM66.79-25.29L66.79-25.29L66.79-25.29Q66.12-24.24 65.54-22.48L65.54-22.48L65.54-22.48Q64.96-20.71 64.00-15.98L64.00-15.98L64.00-15.98Q63.05-11.25 63.05-7.89L63.05-7.89L63.05-7.89Q63.05-4.52 63.57-3.54L63.57-3.54L63.57-3.54Q64.09-2.55 65.02-2.55L65.02-2.55L65.02-2.55Q66.87-2.55 68.24-4.32L68.24-4.32L68.24-4.32Q69.60-6.09 70.12-9.22L70.12-9.22L73.20-26.22L73.20-26.22Q71.98-27.26 70.56-27.26L70.56-27.26L70.56-27.26Q69.14-27.26 68.30-26.80L68.30-26.80L68.30-26.80Q67.45-26.33 66.79-25.29ZM103.41-27.49L103.41-27.49L103.41-27.49Q106.55-30.74 113.16-30.74L113.16-30.74L113.16-30.74Q116.81-30.74 118.81-28.80L118.81-28.80L118.81-28.80Q120.81-26.85 120.81-23.29L120.81-23.29L120.81-23.29Q120.81-19.72 118.81-17.20L118.81-17.20L118.81-17.20Q116.81-14.67 113.10-13.63L113.10-13.63L113.10-13.63Q113.39-12.47 113.80-11.25L113.80-11.25L114.61-8.93L114.61-8.93Q115.71-5.97 116.58-4.93L116.58-4.93L116.58-4.93Q117.45-3.89 118.61-3.54L118.61-3.54L118.61-3.54Q117.97-1.16 115.65 0.12L115.65 0.12L115.65 0.12Q113.80 1.16 111.24 1.16L111.24 1.16L111.24 1.16Q103.76 1.16 102.78-10.38L102.78-10.38L102.78-10.38Q102.60-12.01 102.60-13.63L102.60-13.63L102.60-13.63Q105.50-14.44 107.53-17.17L107.53-17.17L107.53-17.17Q109.56-19.89 109.56-23.08L109.56-23.08L109.56-23.08Q109.56-26.27 107.30-26.27L107.30-26.27L107.30-26.27Q105.68-26.27 104.40-24.48L104.40-24.48L104.40-24.48Q103.12-22.68 102.54-19.60L102.54-19.60L98.72 0L87 1.16L95.12-40.60L106.78-41.76L105.44-34.86L105.44-34.86Q104.57-29.99 103.41-27.49ZM146.97-9.80L146.97-9.80L146.97-9.80Q148.42-8.82 148.42-6.64L148.42-6.64L148.42-6.64Q148.42-4.47 147.32-3.07L147.32-3.07L147.32-3.07Q146.22-1.68 144.42-0.75L144.42-0.75L144.42-0.75Q140.71 1.16 136.71 1.16L136.71 1.16L136.71 1.16Q132.70 1.16 130.36 0.29L130.36 0.29L130.36 0.29Q128.01-0.58 126.44-2.20L126.44-2.20L126.44-2.20Q123.37-5.28 123.37-10.90L123.37-10.90L123.37-10.90Q123.37-19.66 128.12-25.00L128.12-25.00L128.12-25.00Q133.23-30.74 142.10-30.74L142.10-30.74L142.10-30.74Q147.61-30.74 150.34-28.42L150.34-28.42L150.34-28.42Q152.37-26.68 152.37-23.84L152.37-23.84L152.37-23.84Q152.37-13.63 134.73-13.63L134.73-13.63L134.73-13.63Q134.50-12.12 134.50-10.85L134.50-10.85L134.50-10.85Q134.50-8.18 135.69-7.16L135.69-7.16L135.69-7.16Q136.88-6.15 139.08-6.15L139.08-6.15L139.08-6.15Q141.29-6.15 143.64-7.16L143.64-7.16L143.64-7.16Q145.99-8.18 146.97-9.80ZM135.14-16.12L135.14-16.12L135.14-16.12Q139.26-16.12 141.64-18.68L141.64-18.68L141.64-18.68Q144.01-21.11 144.01-25.00L144.01-25.00L144.01-25.00Q144.01-26.33 143.52-27.06L143.52-27.06L143.52-27.06Q143.03-27.78 142.04-27.78L142.04-27.78L142.04-27.78Q141.06-27.78 140.22-27.41L140.22-27.41L140.22-27.41Q139.37-27.03 138.50-25.75L138.50-25.75L138.50-25.75Q136.36-22.85 135.14-16.12ZM172.96-2.44L172.96-2.44L172.96-2.44Q170.17 1.16 163.27 1.16L163.27 1.16L163.27 1.16Q159.67 1.16 157.06-1.02L157.06-1.02L157.06-1.02Q154.45-3.19 154.45-6.32L154.45-6.32L154.45-6.32Q154.45-8.06 154.63-8.93L154.63-8.93L158.51-29.58L170.29-30.74L166.05-8.35L166.05-8.35Q165.82-7.08 165.82-6.32L165.82-6.32L165.82-6.32Q165.82-2.96 167.85-2.96L167.85-2.96L167.85-2.96Q170.11-2.96 171.74-6.03L171.74-6.03L171.74-6.03Q172.26-7.02 172.49-8.29L172.49-8.29L176.61-29.58L188.04-30.74L183.74-8.12L183.74-8.12Q183.57-7.25 183.57-6.32L183.57-6.32L183.57-6.32Q183.57-5.39 184.09-4.38L184.09-4.38L184.09-4.38Q184.61-3.36 186.30-3.13L186.30-3.13L186.30-3.13Q185.95-1.74 184.73-0.81L184.73-0.81L184.73-0.81Q182.18 1.16 179.42 1.16L179.42 1.16L179.42 1.16Q176.67 1.16 175.04 0.17L175.04 0.17L175.04 0.17Q173.42-0.81 172.96-2.44ZM218.20-3.97L218.20-3.97L218.20-3.97Q215.76-1.51 212.43-0.17L212.43-0.17L212.43-0.17Q209.09 1.16 205.78 1.16L205.78 1.16L205.78 1.16Q202.48 1.16 201.32 0.58L201.32 0.58L199.52 10.44L187.75 11.60L195.75-29.58L205.20-30.57L204.45-26.56L204.45-26.56Q206.89-30.68 211.93-30.68L211.93-30.68L211.93-30.68Q217.62-30.68 220.63-27.03L220.63-27.03L220.63-27.03Q223.30-23.72 223.30-18.68L223.30-18.68L223.30-18.68Q223.30-13.63 221.97-10.03L221.97-10.03L221.97-10.03Q220.63-6.44 218.20-3.97ZM205.09-20.24L202.01-3.25L202.01-3.25Q203.23-2.20 204.74-2.20L204.74-2.20L204.74-2.20Q206.25-2.20 207.12-2.78L207.12-2.78L207.12-2.78Q207.99-3.36 208.63-4.52L208.63-4.52L208.63-4.52Q210.37-7.66 211.76-17.17L211.76-17.17L211.76-17.17Q212.16-19.95 212.16-22.68L212.16-22.68L212.16-22.68Q212.16-25.40 211.56-26.27L211.56-26.27L211.56-26.27Q210.95-27.14 209.79-27.14L209.79-27.14L209.79-27.14Q206.25-27.14 205.09-20.24L205.09-20.24ZM243.66 0L236.99 0L247.49-38.28L259.61-38.28L262.28-16.41L273.06-38.28L283.21-38.28L284.26-9.63L284.26-9.63Q284.49-3.94 287.27-2.20L287.27-2.20L287.27-2.20Q286.64-1.04 284.78 0.06L284.78 0.06L284.78 0.06Q282.92 1.16 280.46 1.16L280.46 1.16L280.46 1.16Q277.99 1.16 276.54 0.46L276.54 0.46L276.54 0.46Q275.09-0.23 274.28-1.39L274.28-1.39L274.28-1.39Q272.83-3.48 272.83-7.48L272.83-7.48L272.83-25.40L261.41 0L254.21 0L250.15-26.04L243.66 0ZM302.41 1.16L302.41 1.16L302.41 1.16Q289.65 1.16 289.65-10.85L289.65-10.85L289.65-10.85Q289.65-19.37 294.35-24.88L294.35-24.88L294.35-24.88Q299.34-30.74 307.98-30.74L307.98-30.74L307.98-30.74Q314.24-30.74 317.43-27.84L317.43-27.84L317.43-27.84Q320.62-24.94 320.62-18.85L320.62-18.85L320.62-18.85Q320.62-9.57 315.64-4.18L315.64-4.18L315.64-4.18Q310.76 1.16 302.41 1.16ZM303.92-24.07L303.92-24.07L303.92-24.07Q303.22-22.50 302.67-20.16L302.67-20.16L302.67-20.16Q302.12-17.81 301.43-14.09L301.43-14.09L301.43-14.09Q300.73-10.38 300.73-5.80L300.73-5.80L300.73-5.80Q300.73-4.29 301.22-3.31L301.22-3.31L301.22-3.31Q301.72-2.32 303.05-2.32L303.05-2.32L303.05-2.32Q304.38-2.32 305.23-2.96L305.23-2.96L305.23-2.96Q306.07-3.60 306.70-5.10L306.70-5.10L306.70-5.10Q307.86-7.77 308.79-12.73L308.79-12.73L308.79-12.73Q309.72-17.69 309.81-19.84L309.81-19.84L309.81-19.84Q309.89-21.98 309.89-23.58L309.89-23.58L309.89-23.58Q309.89-25.17 309.43-26.22L309.43-26.22L309.43-26.22Q308.97-27.26 307.66-27.26L307.66-27.26L307.66-27.26Q306.36-27.26 305.49-26.45L305.49-26.45L305.49-26.45Q304.62-25.64 303.92-24.07ZM348.58 1.16L348.58 1.16L348.58 1.16Q341.56 1.16 341.56-4.29L341.56-4.29L341.56-4.29Q341.62-5.80 342.08-8.35L342.08-8.35L343.13-13.69L343.13-13.69Q344.69-21.23 344.69-22.91L344.69-22.91L344.69-22.91Q344.69-26.27 342.72-26.27L342.72-26.27L342.72-26.27Q339.42-26.27 337.68-17.63L337.68-17.63L334.25 0L322.60 1.16L328.63-29.64L338.14-30.74L337.21-25.06L337.21-25.06Q339.94-30.74 348.29-30.74L348.29-30.74L348.29-30.74Q352.35-30.74 354.06-29.03L354.06-29.03L354.06-29.03Q355.77-27.32 355.77-23.49L355.77-23.49L355.77-23.49Q355.77-19.89 353.92-11.48L353.92-11.48L353.92-11.48Q353.05-7.71 353.05-6.29L353.05-6.29L353.05-6.29Q353.05-4.87 353.83-4.06L353.83-4.06L353.83-4.06Q354.61-3.25 355.77-3.13L355.77-3.13L355.77-3.13Q355.19-1.16 353.19 0L353.19 0L353.19 0Q351.19 1.16 348.58 1.16ZM375.38-27.49L375.38-27.49L375.38-27.49Q378.51-30.74 385.12-30.74L385.12-30.74L385.12-30.74Q388.77-30.74 390.78-28.80L390.78-28.80L390.78-28.80Q392.78-26.85 392.78-23.29L392.78-23.29L392.78-23.29Q392.78-19.72 390.78-17.20L390.78-17.20L390.78-17.20Q388.77-14.67 385.06-13.63L385.06-13.63L385.06-13.63Q385.35-12.47 385.76-11.25L385.76-11.25L386.57-8.93L386.57-8.93Q387.67-5.97 388.54-4.93L388.54-4.93L388.54-4.93Q389.41-3.89 390.57-3.54L390.57-3.54L390.57-3.54Q389.93-1.16 387.61 0.12L387.61 0.12L387.61 0.12Q385.76 1.16 383.21 1.16L383.21 1.16L383.21 1.16Q375.72 1.16 374.74-10.38L374.74-10.38L374.74-10.38Q374.56-12.01 374.56-13.63L374.56-13.63L374.56-13.63Q377.46-14.44 379.49-17.17L379.49-17.17L379.49-17.17Q381.52-19.89 381.52-23.08L381.52-23.08L381.52-23.08Q381.52-26.27 379.26-26.27L379.26-26.27L379.26-26.27Q377.64-26.27 376.36-24.48L376.36-24.48L376.36-24.48Q375.09-22.68 374.51-19.60L374.51-19.60L370.68 0L358.96 1.16L367.08-40.60L378.74-41.76L377.41-34.86L377.41-34.86Q376.54-29.99 375.38-27.49ZM418.93-9.80L418.93-9.80L418.93-9.80Q420.38-8.82 420.38-6.64L420.38-6.64L420.38-6.64Q420.38-4.47 419.28-3.07L419.28-3.07L419.28-3.07Q418.18-1.68 416.38-0.75L416.38-0.75L416.38-0.75Q412.67 1.16 408.67 1.16L408.67 1.16L408.67 1.16Q404.67 1.16 402.32 0.29L402.32 0.29L402.32 0.29Q399.97-0.58 398.40-2.20L398.40-2.20L398.40-2.20Q395.33-5.28 395.33-10.90L395.33-10.90L395.33-10.90Q395.33-19.66 400.08-25.00L400.08-25.00L400.08-25.00Q405.19-30.74 414.06-30.74L414.06-30.74L414.06-30.74Q419.57-30.74 422.30-28.42L422.30-28.42L422.30-28.42Q424.33-26.68 424.33-23.84L424.33-23.84L424.33-23.84Q424.33-13.63 406.70-13.63L406.70-13.63L406.70-13.63Q406.46-12.12 406.46-10.85L406.46-10.85L406.46-10.85Q406.46-8.18 407.65-7.16L407.65-7.16L407.65-7.16Q408.84-6.15 411.05-6.15L411.05-6.15L411.05-6.15Q413.25-6.15 415.60-7.16L415.60-7.16L415.60-7.16Q417.95-8.18 418.93-9.80ZM407.10-16.12L407.10-16.12L407.10-16.12Q411.22-16.12 413.60-18.68L413.60-18.68L413.60-18.68Q415.98-21.11 415.98-25.00L415.98-25.00L415.98-25.00Q415.98-26.33 415.48-27.06L415.48-27.06L415.48-27.06Q414.99-27.78 414.00-27.78L414.00-27.78L414.00-27.78Q413.02-27.78 412.18-27.41L412.18-27.41L412.18-27.41Q411.34-27.03 410.47-25.75L410.47-25.75L410.47-25.75Q408.32-22.85 407.10-16.12ZM444.74-6.55L444.74-6.55L444.74-6.55Q441.73-3.42 436.22-3.42L436.22-3.42L436.22-3.42Q429.32-3.42 427.87-8.47L427.87-8.47L427.87-8.47Q427.40-9.98 427.40-11.66L427.40-11.66L427.40-11.66Q427.40-13.34 427.75-15.08L427.75-15.08L430.48-29.58L442.25-30.74L439.06-13.86L439.06-13.86Q438.94-13.11 438.77-12.30L438.77-12.30L438.77-12.30Q438.60-11.48 438.60-10.64L438.60-10.64L438.60-10.64Q438.60-9.80 438.89-9.25L438.89-9.25L438.89-9.25Q439.18-8.70 439.58-8.35L439.58-8.35L439.58-8.35Q440.28-7.89 441.53-7.89L441.53-7.89L441.53-7.89Q442.77-7.89 443.85-9.40L443.85-9.40L443.85-9.40Q444.92-10.90 445.44-13.51L445.44-13.51L448.63-29.58L460.06-30.74L455.71-7.95L455.71-7.95Q453.56 3.19 449.15 7.60L449.15 7.60L449.15 7.60Q446.89 9.86 443.96 10.76L443.96 10.76L443.96 10.76Q441.03 11.66 437.26 11.66L437.26 11.66L437.26 11.66Q431.17 11.66 427.69 9.74L427.69 9.74L427.69 9.74Q424.21 7.83 424.21 4.64L424.21 4.64L424.21 4.64Q424.21 2.26 426.01 0.90L426.01 0.90L426.01 0.90Q427.81-0.46 430.59-0.46L430.59-0.46L430.59-0.46Q433.03-0.46 434.88 0.58L434.88 0.58L434.88 0.58Q435.99 1.22 436.51 2.03L436.51 2.03L436.51 2.03Q435.17 3.19 435.17 5.10L435.17 5.10L435.17 5.10Q435.17 7.66 437.49 7.66L437.49 7.66L437.49 7.66Q441.32 7.66 443.53-1.16L443.53-1.16L443.53-1.16Q444.16-3.77 444.74-6.55Z"></path></g></g><style>text {
  font-size: 64px;
  font-family: Arial Black;
  dominant-baseline: central;
  text-anchor: middle;
}</style></svg>